<svg xmlns="http://www.w3.org/2000/svg" viewBox="0 0 400 400">
  <defs>
    <linearGradient id="grad3" x1="0%" y1="0%" x2="100%" y2="100%">
      <stop offset="0%" style="stop-color:#660000;stop-opacity:1" />
      <stop offset="100%" style="stop-color:#1a0000;stop-opacity:1" />
    </linearGradient>
  </defs>
  <!-- Background -->
  <rect width="400" height="400" fill="url(#grad3)"/>
  <!-- Head -->
  <circle cx="200" cy="120" r="60" fill="#b8956a"/>
  <!-- Body -->
  <rect x="160" y="190" width="80" height="140" rx="10" fill="#1a1a1a"/>
  <!-- Arm left -->
  <rect x="80" y="210" width="80" height="25" rx="12" fill="#1a1a1a"/>
  <!-- Arm right -->
  <rect x="240" y="210" width="80" height="25" rx="12" fill="#1a1a1a"/>
  <!-- Bass guitar -->
  <ellipse cx="310" cy="280" rx="30" ry="70" fill="#3a3a3a" stroke="#1a1a1a" stroke-width="2"/>
  <rect x="305" y="220" width="10" height="120" fill="#2a2a2a"/>
  <!-- Bass strings -->
  <line x1="308" y1="230" x2="308" y2="320" stroke="#777" stroke-width="2"/>
  <line x1="312" y1="230" x2="312" y2="320" stroke="#777" stroke-width="2"/>
  <!-- Head detail -->
  <path d="M 165 85 Q 145 70 145 105 Q 150 135 165 142" fill="#1a1a1a"/>
  <path d="M 235 85 Q 255 70 255 105 Q 250 135 235 142" fill="#1a1a1a"/>
  <!-- Face -->
  <circle cx="185" cy="115" r="5" fill="#1a1a1a"/>
  <circle cx="215" cy="115" r="5" fill="#1a1a1a"/>
  <line x1="190" y1="135" x2="210" y2="135" stroke="#8b0000" stroke-width="2"/>
</svg>